<svg width="185" height="70" viewBox="0 0 185 70" fill="none" xmlns="http://www.w3.org/2000/svg">
<circle cx="35" cy="35" r="35" fill="#1E6648"/>
<path d="M91.4746 14.4316H83.5859V10.6309H103.697V14.4316H95.8086V32H91.4746V14.4316ZM106.501 26.9141C106.501 26.1393 106.669 25.4329 107.006 24.7949C107.344 24.1569 107.85 23.61 108.524 23.1543C109.198 22.6895 110.037 22.334 111.04 22.0879C112.051 21.8327 113.227 21.7051 114.567 21.7051C115.56 21.7051 116.604 21.778 117.698 21.9238C118.801 22.0697 119.935 22.293 121.102 22.5938C121.057 22.0833 120.902 21.6139 120.637 21.1855C120.373 20.748 120.004 20.3743 119.53 20.0645C119.065 19.7454 118.5 19.4993 117.835 19.3262C117.178 19.153 116.431 19.0664 115.592 19.0664C115.137 19.0664 114.635 19.0938 114.088 19.1484C113.542 19.2031 112.976 19.2852 112.393 19.3945C111.81 19.5039 111.231 19.6406 110.657 19.8047C110.092 19.9688 109.563 20.1647 109.071 20.3926L107.84 17.0703C108.451 16.8516 109.103 16.651 109.795 16.4688C110.497 16.2865 111.213 16.1315 111.942 16.0039C112.671 15.8672 113.4 15.7624 114.129 15.6895C114.859 15.6165 115.565 15.5801 116.249 15.5801C119.266 15.5801 121.508 16.3503 122.975 17.8906C124.443 19.431 125.176 21.7917 125.176 24.9727V32H121.129V30.4824C120.71 30.7285 120.25 30.9609 119.749 31.1797C119.256 31.3984 118.719 31.5898 118.135 31.7539C117.552 31.918 116.923 32.0456 116.249 32.1367C115.583 32.237 114.877 32.2871 114.129 32.2871C112.872 32.2871 111.764 32.1504 110.807 31.877C109.859 31.6035 109.066 31.2253 108.428 30.7422C107.79 30.2591 107.307 29.694 106.979 29.0469C106.66 28.3906 106.501 27.6797 106.501 26.9141ZM110.766 26.7773C110.766 27.0417 110.835 27.2969 110.971 27.543C111.108 27.7799 111.327 27.9941 111.628 28.1855C111.928 28.3678 112.311 28.5182 112.776 28.6367C113.25 28.7461 113.82 28.8008 114.485 28.8008C115.196 28.8008 115.884 28.737 116.549 28.6094C117.215 28.4818 117.835 28.3132 118.409 28.1035C118.983 27.8939 119.503 27.6523 119.967 27.3789C120.432 27.1055 120.82 26.8229 121.129 26.5312V25.8203C120.51 25.6471 119.894 25.5013 119.284 25.3828C118.682 25.2643 118.103 25.1732 117.547 25.1094C117.001 25.0365 116.481 24.9863 115.989 24.959C115.506 24.9316 115.082 24.918 114.717 24.918C113.961 24.918 113.332 24.9681 112.831 25.0684C112.329 25.1686 111.924 25.3053 111.614 25.4785C111.304 25.6426 111.085 25.8385 110.958 26.0664C110.83 26.2943 110.766 26.5312 110.766 26.7773ZM130.618 27.0508C131.712 27.707 132.915 28.1901 134.228 28.5C135.54 28.8099 136.885 28.9648 138.261 28.9648C139.191 28.9648 139.965 28.901 140.585 28.7734C141.205 28.6458 141.702 28.4818 142.075 28.2812C142.449 28.0807 142.713 27.8529 142.868 27.5977C143.023 27.3424 143.101 27.0827 143.101 26.8184C143.101 26.4355 142.932 26.1074 142.595 25.834C142.267 25.5605 141.72 25.4238 140.954 25.4238C140.599 25.4238 140.216 25.4466 139.806 25.4922C139.396 25.5378 138.963 25.5879 138.507 25.6426C138.06 25.6882 137.591 25.7337 137.099 25.7793C136.616 25.8249 136.123 25.8477 135.622 25.8477C134.528 25.8477 133.594 25.7292 132.819 25.4922C132.054 25.2552 131.429 24.9316 130.946 24.5215C130.463 24.1113 130.112 23.6283 129.894 23.0723C129.675 22.5072 129.566 21.901 129.566 21.2539C129.566 20.4336 129.757 19.6771 130.14 18.9844C130.523 18.2917 131.069 17.6947 131.78 17.1934C132.491 16.6829 133.348 16.2865 134.351 16.0039C135.362 15.7214 136.488 15.5801 137.728 15.5801C138.375 15.5801 139.049 15.6211 139.751 15.7031C140.462 15.776 141.159 15.8763 141.843 16.0039C142.526 16.1315 143.183 16.2819 143.812 16.4551C144.441 16.6191 144.997 16.7969 145.48 16.9883L144.208 20.1328C143.178 19.75 142.148 19.4492 141.118 19.2305C140.097 19.0026 139.045 18.8887 137.96 18.8887C137.204 18.8887 136.561 18.9479 136.032 19.0664C135.513 19.1758 135.089 19.3262 134.761 19.5176C134.433 19.6999 134.191 19.9141 134.036 20.1602C133.89 20.3971 133.818 20.6478 133.818 20.9121C133.818 21.1035 133.854 21.2767 133.927 21.4316C134.009 21.5866 134.137 21.7233 134.31 21.8418C134.492 21.9512 134.724 22.0378 135.007 22.1016C135.299 22.1562 135.654 22.1836 136.073 22.1836C136.456 22.1836 136.862 22.1608 137.29 22.1152C137.719 22.0697 138.165 22.0241 138.63 21.9785C139.095 21.9238 139.573 21.8737 140.066 21.8281C140.567 21.7826 141.077 21.7598 141.597 21.7598C142.563 21.7598 143.406 21.8737 144.126 22.1016C144.855 22.3294 145.457 22.6484 145.931 23.0586C146.405 23.4688 146.76 23.9518 146.997 24.5078C147.234 25.0638 147.353 25.6699 147.353 26.3262C147.353 27.1738 147.157 27.9622 146.765 28.6914C146.373 29.4206 145.79 30.054 145.015 30.5918C144.24 31.1204 143.274 31.5352 142.116 31.8359C140.968 32.1367 139.637 32.2871 138.124 32.2871C137.194 32.2871 136.297 32.2279 135.431 32.1094C134.565 32 133.74 31.8496 132.956 31.6582C132.172 31.4577 131.434 31.2253 130.741 30.9609C130.058 30.6966 129.433 30.4141 128.868 30.1133L130.618 27.0508ZM152.877 18.9023H148.98V15.8672H152.877V10.8496H156.924V15.8672H160.82V18.9023H156.924V32H152.877V18.9023ZM165.783 34.0234C166.203 34.2969 166.658 34.5384 167.151 34.748C167.643 34.9577 168.153 35.1309 168.682 35.2676C169.22 35.4043 169.767 35.5046 170.323 35.5684C170.878 35.6413 171.43 35.6777 171.977 35.6777C173.836 35.6777 175.267 35.2767 176.27 34.4746C177.281 33.6816 177.787 32.4876 177.787 30.8926V30.3457C177.432 30.5918 177.031 30.8197 176.584 31.0293C176.147 31.2298 175.673 31.403 175.162 31.5488C174.661 31.6947 174.128 31.8086 173.563 31.8906C173.007 31.9635 172.442 32 171.867 32C170.637 32 169.534 31.8223 168.559 31.4668C167.593 31.1022 166.772 30.5736 166.098 29.8809C165.433 29.179 164.922 28.3177 164.567 27.2969C164.211 26.276 164.033 25.1094 164.033 23.7969V15.8672H168.067V22.6758C168.067 24.6263 168.436 26.0664 169.174 26.9961C169.921 27.9167 171.097 28.377 172.701 28.377C173.832 28.377 174.83 28.181 175.696 27.7891C176.571 27.388 177.268 26.8776 177.787 26.2578V15.8672H181.834V30.1543C181.834 31.6947 181.615 33.0299 181.178 34.1602C180.74 35.2995 180.102 36.2428 179.264 36.9902C178.434 37.7376 177.414 38.2936 176.201 38.6582C174.989 39.0319 173.613 39.2188 172.073 39.2188C170.569 39.2188 169.165 39.0592 167.862 38.7402C166.558 38.4212 165.364 37.9883 164.28 37.4414L165.783 34.0234Z" fill="#6D2A2A"/>
<path d="M91.4746 43.4316H83.5859V39.6309H103.697V43.4316H95.8086V61H91.4746V43.4316ZM106.501 52.8789C106.501 51.7852 106.724 50.7415 107.17 49.748C107.617 48.7454 108.26 47.8613 109.098 47.0957C109.937 46.3301 110.962 45.7194 112.174 45.2637C113.396 44.8079 114.781 44.5801 116.331 44.5801C117.871 44.5801 119.256 44.8125 120.487 45.2773C121.726 45.7331 122.775 46.362 123.631 47.1641C124.497 47.9661 125.158 48.9095 125.614 49.9941C126.079 51.0788 126.311 52.2409 126.311 53.4805C126.311 53.6354 126.307 53.804 126.297 53.9863C126.297 54.1595 126.288 54.319 126.27 54.4648H111.012C111.185 54.9479 111.463 55.39 111.846 55.791C112.238 56.1921 112.726 56.5384 113.309 56.8301C113.892 57.1217 114.567 57.3496 115.333 57.5137C116.098 57.6686 116.946 57.7461 117.876 57.7461C118.805 57.7461 119.73 57.6504 120.651 57.459C121.572 57.2585 122.451 57.0078 123.29 56.707L124.657 59.7969C124.128 60.043 123.59 60.2617 123.044 60.4531C122.506 60.6354 121.941 60.7904 121.348 60.918C120.765 61.0365 120.15 61.1276 119.503 61.1914C118.864 61.2552 118.19 61.2871 117.479 61.2871C115.665 61.2871 114.075 61.0684 112.708 60.6309C111.34 60.1934 110.197 59.5964 109.276 58.8398C108.355 58.0833 107.663 57.1947 107.198 56.1738C106.733 55.153 106.501 54.0547 106.501 52.8789ZM122.018 51.3066C121.872 50.86 121.644 50.4453 121.335 50.0625C121.034 49.6706 120.655 49.3333 120.2 49.0508C119.744 48.7591 119.215 48.5312 118.614 48.3672C118.012 48.2031 117.351 48.1211 116.631 48.1211C115.866 48.1211 115.169 48.2077 114.54 48.3809C113.911 48.554 113.359 48.7865 112.885 49.0781C112.411 49.3698 112.015 49.707 111.696 50.0898C111.386 50.4727 111.158 50.8783 111.012 51.3066H122.018ZM129.347 55.9141C129.347 55.1393 129.515 54.4329 129.853 53.7949C130.19 53.1569 130.696 52.61 131.37 52.1543C132.045 51.6895 132.883 51.334 133.886 51.0879C134.898 50.8327 136.073 50.7051 137.413 50.7051C138.407 50.7051 139.45 50.778 140.544 50.9238C141.647 51.0697 142.782 51.293 143.948 51.5938C143.903 51.0833 143.748 50.6139 143.484 50.1855C143.219 49.748 142.85 49.3743 142.376 49.0645C141.911 48.7454 141.346 48.4993 140.681 48.3262C140.025 48.153 139.277 48.0664 138.439 48.0664C137.983 48.0664 137.482 48.0938 136.935 48.1484C136.388 48.2031 135.823 48.2852 135.239 48.3945C134.656 48.5039 134.077 48.6406 133.503 48.8047C132.938 48.9688 132.409 49.1647 131.917 49.3926L130.687 46.0703C131.297 45.8516 131.949 45.651 132.642 45.4688C133.344 45.2865 134.059 45.1315 134.788 45.0039C135.517 44.8672 136.247 44.7624 136.976 44.6895C137.705 44.6165 138.411 44.5801 139.095 44.5801C142.112 44.5801 144.354 45.3503 145.821 46.8906C147.289 48.431 148.023 50.7917 148.023 53.9727V61H143.976V59.4824C143.556 59.7285 143.096 59.9609 142.595 60.1797C142.103 60.3984 141.565 60.5898 140.982 60.7539C140.398 60.918 139.769 61.0456 139.095 61.1367C138.429 61.237 137.723 61.2871 136.976 61.2871C135.718 61.2871 134.61 61.1504 133.653 60.877C132.706 60.6035 131.913 60.2253 131.275 59.7422C130.637 59.2591 130.153 58.694 129.825 58.0469C129.506 57.3906 129.347 56.6797 129.347 55.9141ZM133.612 55.7773C133.612 56.0417 133.681 56.2969 133.818 56.543C133.954 56.7799 134.173 56.9941 134.474 57.1855C134.775 57.3678 135.157 57.5182 135.622 57.6367C136.096 57.7461 136.666 57.8008 137.331 57.8008C138.042 57.8008 138.73 57.737 139.396 57.6094C140.061 57.4818 140.681 57.3132 141.255 57.1035C141.829 56.8939 142.349 56.6523 142.814 56.3789C143.278 56.1055 143.666 55.8229 143.976 55.5312V54.8203C143.356 54.6471 142.741 54.5013 142.13 54.3828C141.528 54.2643 140.95 54.1732 140.394 54.1094C139.847 54.0365 139.327 53.9863 138.835 53.959C138.352 53.9316 137.928 53.918 137.564 53.918C136.807 53.918 136.178 53.9681 135.677 54.0684C135.176 54.1686 134.77 54.3053 134.46 54.4785C134.15 54.6426 133.931 54.8385 133.804 55.0664C133.676 55.2943 133.612 55.5312 133.612 55.7773Z" fill="#1E6648"/>
<path fill-rule="evenodd" clip-rule="evenodd" d="M34 32.5402C33.8901 32.4646 33.7648 32.376 33.6272 32.2751C33.1294 31.9101 32.4629 31.3773 31.7928 30.7071C30.4879 29.4022 28.9999 27.4072 28.9999 25C28.9999 22.9729 30.061 21.0564 31.1398 19.6094C32.2383 18.1362 33.471 16.9972 34.0394 16.5024C34.5922 16.0211 35.4075 16.0211 35.9603 16.5023C36.5287 16.9972 37.7615 18.1362 38.8599 19.6094C39.9388 21.0563 40.9999 22.9729 40.9999 25C40.9998 27.4072 39.5119 29.4022 38.2069 30.7071C37.5368 31.3773 36.8703 31.9101 36.3725 32.2751C36.235 32.376 36.1097 32.4645 36 32.54V41.0421C36.3468 40.3582 36.7908 39.7262 37.3654 39.2434C38.7864 38.0494 40.8922 37.722 42.626 37.6652C44.4123 37.6068 46.065 37.8311 46.7888 37.948C47.4784 38.0595 47.9927 38.6355 48.0185 39.3389C48.0459 40.0829 48.0593 41.7861 47.725 43.5995C47.3979 45.3735 46.7002 47.4682 45.1402 48.7682C43.3718 50.242 40.834 50.625 38.9141 50.6914C37.9267 50.7255 37.0417 50.6773 36.4038 50.6209C36.2557 50.6078 36.1205 50.5942 36 50.581V53C36 53.5523 35.5522 54 35 54C34.4477 54 34 53.5523 34 53V46.2108C33.3779 46.3086 32.5608 46.4068 31.658 46.4369C29.7346 46.501 27.1582 46.2672 25.3595 44.7682C23.8036 43.4715 23.015 41.1977 22.5883 39.2537C22.1489 37.2521 22.0383 35.3281 22.0099 34.4771C21.9833 33.6807 22.5865 33.024 23.3666 32.9629C24.1701 32.9001 25.9285 32.8035 27.7934 32.9722C29.6017 33.1358 31.7531 33.5663 33.1433 34.7344C33.4687 35.0078 33.7522 35.3291 34 35.6806V32.5402ZM32.7432 20.8049C33.5364 19.7411 34.4193 18.8612 34.9999 18.3269C35.5805 18.8612 36.4634 19.7411 37.2566 20.8049C38.2549 22.1438 38.9999 23.6272 38.9999 25C38.9998 26.5928 37.9878 28.0978 36.7927 29.2929C36.5244 29.5612 36.2552 29.8055 36 30.0224V25C36 24.4477 35.5522 24 35 24C34.4477 24 34 24.4477 34 25V30.0225C33.7446 29.8056 33.4754 29.5613 33.207 29.2929C32.012 28.0978 30.9999 26.5928 30.9999 25C30.9999 23.6272 31.745 22.1438 32.7432 20.8049ZM37.7363 48.6956C38.0816 48.7052 38.4551 48.7061 38.845 48.6926C40.6707 48.6295 42.6284 48.258 43.8598 47.2318C44.8662 46.3931 45.4542 44.8854 45.7581 43.2368C46.0014 41.9174 46.0384 40.6447 46.0301 39.8567C45.2549 39.7497 44.0043 39.6212 42.6914 39.6642C41.0361 39.7183 39.5263 40.04 38.652 40.7746C38.1737 41.1765 37.7585 41.8639 37.4252 42.7857C37.0973 43.6926 36.8812 44.7347 36.742 45.7423C36.6817 46.1788 36.6365 46.6034 36.6028 47.0007L39.3874 44.2161C39.7779 43.8256 40.4111 43.8256 40.8016 44.2161C41.1922 44.6066 41.1922 45.2398 40.8016 45.6303L37.7363 48.6956ZM33.7667 41.2334C33.827 41.6698 33.8721 42.0944 33.9059 42.4917L31.1213 39.7071C30.7307 39.3166 30.0976 39.3166 29.7071 39.7071C29.3165 40.0976 29.3165 40.7308 29.7071 41.1213L32.9244 44.3387C32.5186 44.3848 32.0672 44.4222 31.5914 44.438C29.7647 44.4989 27.8411 44.2328 26.6399 43.2318C25.6356 42.3948 24.9564 40.7139 24.5418 38.8249C24.2111 37.3186 24.0818 35.8421 24.0315 34.9226C24.8878 34.8735 26.2265 34.8386 27.6132 34.9641C29.3754 35.1235 30.974 35.5239 31.8566 36.2656C32.335 36.6675 32.7502 37.3549 33.0835 38.2767C33.4114 39.1837 33.6275 40.2257 33.7667 41.2334Z" fill="#FFF7DF"/>
</svg>
